# xmcd
#
# Track frame offsets:
#	183
#	15983
#	39740
#	55338
#	73305
#	91980
#	111060
#	123945
#	153080
#	173833
#	191518
#
# Disc length: 2813 seconds
#
# Revision: 4
# Processed by: cddbd v1.5.2PL0 Copyright (c) Steve Scherf et al.
# Submitted via: audiograbber 1.83.01
#
DISCID=890afb0b
DTITLE=Climax Blues Band - Collection '77-'83
DYEAR=1984
DGENRE=Rock
TTITLE0=Gotta Have More Love
TTITLE1=Mistress Moonshine
TTITLE2=Champagne and Rock'n'Roll
TTITLE3=Children of the Nighttime
TTITLE4=Black Jack and Me
TTITLE5=Friends in High Places
TTITLE6=Horizontalized
TTITLE7=Watcha Feel
TTITLE8=Fat City
TTITLE9=Long Distance Love
TTITLE10=Movie Queen
EXTD=
EXTT0=
EXTT1=
EXTT2=
EXTT3=
EXTT4=
EXTT5=
EXTT6=
EXTT7=
EXTT8=
EXTT9=
EXTT10=
PLAYORDER=
